<svg width="159" height="28" viewBox="0 0 159 28" fill="none" xmlns="http://www.w3.org/2000/svg">
<path d="M11 1.656C11.848 1.656 12.824 1.776 13.928 2.016C15.048 2.256 15.864 2.512 16.376 2.784V7.44H15.464C13.992 4.928 12.04 3.672 9.608 3.672C8.552 3.672 7.584 3.984 6.704 4.608C5.84 5.216 5.16 6.072 4.664 7.176C4.168 8.264 3.92 9.488 3.92 10.848C3.92 12.416 4.16 13.848 4.64 15.144C5.136 16.44 5.88 17.48 6.872 18.264C7.88 19.048 9.12 19.44 10.592 19.44C11.952 19.44 13.904 18.416 16.448 16.368L17.168 17.52L12.752 20.952C12.16 21.16 11.584 21.296 11.024 21.36C10.48 21.44 9.888 21.48 9.248 21.48C7.568 21.48 6.08 21.072 4.784 20.256C3.488 19.44 2.48 18.32 1.76 16.896C1.04 15.456 0.68 13.824 0.68 12C0.68 10.128 1.224 8.4 2.312 6.816C3.4 5.216 4.752 3.96 6.368 3.048C7.984 2.12 9.528 1.656 11 1.656ZM26.7035 21H20.0075V20.256L22.1435 18.576V11.568L20.0075 10.08V9.336L24.1115 7.8H25.0235V19.2L27.1835 20.04L26.7035 21ZM23.4875 0.599999C23.9675 0.599999 24.3595 0.775999 24.6635 1.128C24.9835 1.48 25.1435 1.92 25.1435 2.448C25.1435 2.816 25.0315 3.168 24.8075 3.504C24.5835 3.824 24.3035 4.08 23.9675 4.272C23.6315 4.464 23.3035 4.56 22.9835 4.56C22.5035 4.56 22.1035 4.384 21.7835 4.032C21.4795 3.68 21.3275 3.24 21.3275 2.712C21.3275 2.344 21.4395 2 21.6635 1.68C21.8875 1.344 22.1675 1.08 22.5035 0.887999C22.8395 0.695999 23.1675 0.599999 23.4875 0.599999ZM36.1756 21.048C35.8076 21.176 35.3596 21.24 34.8316 21.24C33.5036 21.24 32.5276 20.896 31.9036 20.208C31.2956 19.504 30.9916 18.424 30.9916 16.968V9.96H28.3996V8.976L32.9596 3.672H33.8716V8.976H38.1916V9.96H33.8716V17.256C33.8716 18.552 34.4956 19.2 35.7436 19.2C36.0796 19.2 36.3996 19.128 36.7036 18.984C37.0236 18.84 37.4156 18.584 37.8796 18.216L38.5996 19.128L36.1756 21.048ZM52.9529 9L46.8809 21L41.8889 27.336L40.9769 26.616C41.8889 25.64 42.5769 24.784 43.0409 24.048C43.5209 23.312 43.8569 22.568 44.0489 21.816C44.2409 21.08 44.3369 20.2 44.3369 19.176L41.3129 11.856L39.0809 10.56V9.816L43.1849 7.8L44.0969 11.424L47.0249 18.576L50.4089 11.544L47.2169 9.216L47.6969 8.256H52.9529V9ZM72.5949 16.752C72.5949 16.256 72.3949 15.792 71.9949 15.36C71.5949 14.928 71.0909 14.536 70.4829 14.184C69.8909 13.816 69.0829 13.368 68.0589 12.84C66.8429 12.2 65.8669 11.656 65.1309 11.208C64.3949 10.744 63.7629 10.2 63.2349 9.576C62.7229 8.952 62.4669 8.264 62.4669 7.512C62.4669 6.712 62.8029 5.856 63.4749 4.944C64.1469 4.016 64.9629 3.24 65.9229 2.616C66.8989 1.976 67.7949 1.656 68.6109 1.656C69.6029 1.656 70.7549 1.776 72.0669 2.016C73.3789 2.256 74.3389 2.512 74.9469 2.784V7.44H74.0349C73.2509 6.144 72.3869 5.136 71.4429 4.416C70.5149 3.696 69.5389 3.336 68.5149 3.336C67.6029 3.336 66.8749 3.624 66.3309 4.2C65.8029 4.76 65.5389 5.496 65.5389 6.408C65.5389 6.936 65.7389 7.432 66.1389 7.896C66.5549 8.344 67.0589 8.744 67.6509 9.096C68.2589 9.448 69.0989 9.904 70.1709 10.464C71.3549 11.056 72.3149 11.584 73.0509 12.048C73.7869 12.496 74.4029 13.024 74.8989 13.632C75.4109 14.224 75.6669 14.896 75.6669 15.648C75.6669 16.448 75.3069 17.312 74.5869 18.24C73.8669 19.152 72.9869 19.928 71.9469 20.568C70.9229 21.192 69.9869 21.504 69.1389 21.504C68.0989 21.504 66.8589 21.384 65.4189 21.144C63.9949 20.904 62.9709 20.648 62.3469 20.376V15.72H63.2589C64.0749 17.016 65.0029 18.024 66.0429 18.744C67.0829 19.464 68.1549 19.824 69.2589 19.824C69.9149 19.824 70.4989 19.68 71.0109 19.392C71.5229 19.104 71.9149 18.728 72.1869 18.264C72.4589 17.784 72.5949 17.28 72.5949 16.752ZM86.8556 21.048C86.2156 21.176 85.4476 21.24 84.5516 21.24C83.4956 21.24 82.5436 20.968 81.6956 20.424C80.8636 19.864 80.2076 19.112 79.7276 18.168C79.2636 17.224 79.0316 16.184 79.0316 15.048C79.0316 13.816 79.4076 12.664 80.1596 11.592C80.9116 10.504 81.8476 9.64 82.9676 9C84.1036 8.344 85.1996 8.016 86.2556 8.016C87.7756 8.016 88.9516 8.616 89.7836 9.816C90.6316 11.016 91.0556 12.6 91.0556 14.568H82.1756C82.2716 15.928 82.6396 17.04 83.2796 17.904C83.9356 18.768 84.8236 19.2 85.9436 19.2C86.9836 19.2 88.4636 18.392 90.3836 16.776L91.1036 17.688L86.8556 21.048ZM84.8636 10.032C83.1356 10.032 82.2316 11.216 82.1516 13.584H87.7676C87.6236 12.72 87.4716 12.064 87.3116 11.616C87.1676 11.152 86.9036 10.776 86.5196 10.488C86.1516 10.184 85.5996 10.032 84.8636 10.032ZM101.197 8.016C101.853 8.016 102.613 8.112 103.477 8.304C104.357 8.48 104.989 8.68 105.373 8.904V12.6H104.461C103.837 11.8 103.117 11.176 102.301 10.728C101.501 10.264 100.669 10.032 99.8054 10.032C99.0694 10.032 98.5094 10.36 98.1254 11.016C97.7574 11.672 97.5734 12.632 97.5734 13.896C97.5734 15.4 97.9014 16.664 98.5574 17.688C99.2134 18.696 100.149 19.2 101.365 19.2C102.277 19.2 103.573 18.544 105.253 17.232L105.973 18.144L102.277 21.048C101.637 21.176 100.869 21.24 99.9734 21.24C98.9174 21.24 97.9654 20.968 97.1174 20.424C96.2854 19.864 95.6294 19.112 95.1494 18.168C94.6854 17.224 94.4534 16.184 94.4534 15.048C94.4534 13.816 94.7974 12.656 95.4854 11.568C96.1894 10.48 97.0694 9.616 98.1254 8.976C99.1814 8.336 100.205 8.016 101.197 8.016ZM117.476 8.04C118.004 8.04 118.468 8.184 118.868 8.472C119.268 8.76 119.58 9.16 119.804 9.672L118.22 11.664H117.308C117.244 11.264 117.124 10.984 116.948 10.824C116.788 10.648 116.564 10.56 116.276 10.56C115.924 10.56 115.548 10.656 115.148 10.848C114.764 11.024 114.324 11.368 113.828 11.88V19.032L117.188 20.064L116.708 21.024H108.812V20.28L110.948 18.6V11.808L108.812 10.56V9.816L112.916 7.8L113.66 10.752L116.156 8.208C116.492 8.08 116.932 8.016 117.476 8.016V8.04ZM129.442 21.048C128.802 21.176 128.034 21.24 127.138 21.24C126.082 21.24 125.13 20.968 124.282 20.424C123.45 19.864 122.794 19.112 122.314 18.168C121.85 17.224 121.618 16.184 121.618 15.048C121.618 13.816 121.994 12.664 122.746 11.592C123.498 10.504 124.434 9.64 125.554 9C126.69 8.344 127.786 8.016 128.842 8.016C130.362 8.016 131.538 8.616 132.37 9.816C133.218 11.016 133.642 12.6 133.642 14.568H124.762C124.858 15.928 125.226 17.04 125.866 17.904C126.522 18.768 127.41 19.2 128.53 19.2C129.57 19.2 131.05 18.392 132.97 16.776L133.69 17.688L129.442 21.048ZM127.45 10.032C125.722 10.032 124.818 11.216 124.738 13.584H130.354C130.21 12.72 130.058 12.064 129.898 11.616C129.754 11.152 129.49 10.776 129.106 10.488C128.738 10.184 128.186 10.032 127.45 10.032ZM143.519 21.048C143.151 21.176 142.703 21.24 142.175 21.24C140.847 21.24 139.871 20.896 139.247 20.208C138.639 19.504 138.335 18.424 138.335 16.968V9.96H135.743V8.976L140.303 3.672H141.215V8.976H145.535V9.96H141.215V17.256C141.215 18.552 141.839 19.2 143.087 19.2C143.423 19.2 143.743 19.128 144.047 18.984C144.367 18.84 144.759 18.584 145.223 18.216L145.943 19.128L143.519 21.048ZM155.353 18.408C155.353 17.96 155.105 17.552 154.609 17.184C154.113 16.8 153.353 16.344 152.329 15.816C151.497 15.384 150.825 15.008 150.313 14.688C149.801 14.368 149.361 14 148.993 13.584C148.641 13.152 148.465 12.688 148.465 12.192C148.465 11.616 148.705 11 149.185 10.344C149.665 9.688 150.257 9.136 150.961 8.688C151.665 8.24 152.321 8.016 152.929 8.016C153.665 8.016 154.513 8.112 155.473 8.304C156.449 8.48 157.153 8.68 157.585 8.904V12.6H156.673C156.161 11.608 155.569 10.84 154.897 10.296C154.225 9.736 153.537 9.456 152.833 9.456C152.337 9.456 151.937 9.592 151.633 9.864C151.329 10.12 151.177 10.448 151.177 10.848C151.177 11.344 151.433 11.792 151.945 12.192C152.473 12.576 153.265 13.032 154.321 13.56C155.137 13.976 155.793 14.336 156.289 14.64C156.785 14.944 157.201 15.304 157.537 15.72C157.889 16.12 158.065 16.568 158.065 17.064C158.065 17.656 157.809 18.28 157.297 18.936C156.801 19.576 156.185 20.12 155.449 20.568C154.729 21.016 154.065 21.24 153.457 21.24C152.673 21.24 151.737 21.152 150.649 20.976C149.577 20.784 148.809 20.576 148.345 20.352V16.656H149.257C149.817 17.648 150.481 18.424 151.249 18.984C152.017 19.528 152.793 19.8 153.577 19.8C154.105 19.8 154.529 19.664 154.849 19.392C155.185 19.12 155.353 18.792 155.353 18.408Z" fill="black"/>
</svg>
