<svg width="29" height="29" viewBox="0 0 29 29" fill="none" xmlns="http://www.w3.org/2000/svg">
<path d="M1.74012 5.22003C1.66326 5.21894 1.58695 5.23314 1.51563 5.2618C1.44431 5.29046 1.3794 5.33301 1.32466 5.38698C1.26993 5.44094 1.22646 5.50525 1.1968 5.57616C1.16713 5.64707 1.15186 5.72316 1.15186 5.80003C1.15186 5.87689 1.16713 5.95299 1.1968 6.0239C1.22646 6.09481 1.26993 6.15912 1.32466 6.21308C1.3794 6.26705 1.44431 6.3096 1.51563 6.33826C1.58695 6.36692 1.66326 6.38112 1.74012 6.38003H27.2601C27.337 6.38112 27.4133 6.36692 27.4846 6.33826C27.5559 6.3096 27.6208 6.26705 27.6756 6.21308C27.7303 6.15912 27.7738 6.09481 27.8034 6.0239C27.8331 5.95299 27.8484 5.87689 27.8484 5.80003C27.8484 5.72316 27.8331 5.64707 27.8034 5.57616C27.7738 5.50525 27.7303 5.44094 27.6756 5.38698C27.6208 5.33301 27.5559 5.29046 27.4846 5.2618C27.4133 5.23314 27.337 5.21894 27.2601 5.22003H1.74012ZM1.74012 13.92C1.66326 13.9189 1.58695 13.9331 1.51563 13.9618C1.44431 13.9905 1.3794 14.033 1.32466 14.087C1.26993 14.1409 1.22646 14.2052 1.1968 14.2762C1.16713 14.3471 1.15186 14.4232 1.15186 14.5C1.15186 14.5769 1.16713 14.653 1.1968 14.7239C1.22646 14.7948 1.26993 14.8591 1.32466 14.9131C1.3794 14.967 1.44431 15.0096 1.51563 15.0383C1.58695 15.0669 1.66326 15.0811 1.74012 15.08H27.2601C27.337 15.0811 27.4133 15.0669 27.4846 15.0383C27.5559 15.0096 27.6208 14.967 27.6756 14.9131C27.7303 14.8591 27.7738 14.7948 27.8034 14.7239C27.8331 14.653 27.8484 14.5769 27.8484 14.5C27.8484 14.4232 27.8331 14.3471 27.8034 14.2762C27.7738 14.2052 27.7303 14.1409 27.6756 14.087C27.6208 14.033 27.5559 13.9905 27.4846 13.9618C27.4133 13.9331 27.337 13.9189 27.2601 13.92H1.74012ZM1.74012 22.62C1.66326 22.6189 1.58695 22.6331 1.51563 22.6618C1.44431 22.6905 1.3794 22.733 1.32466 22.787C1.26993 22.8409 1.22646 22.9052 1.1968 22.9762C1.16713 23.0471 1.15186 23.1232 1.15186 23.2C1.15186 23.2769 1.16713 23.353 1.1968 23.4239C1.22646 23.4948 1.26993 23.5591 1.32466 23.6131C1.3794 23.667 1.44431 23.7096 1.51563 23.7383C1.58695 23.7669 1.66326 23.7811 1.74012 23.78H27.2601C27.337 23.7811 27.4133 23.7669 27.4846 23.7383C27.5559 23.7096 27.6208 23.667 27.6756 23.6131C27.7303 23.5591 27.7738 23.4948 27.8034 23.4239C27.8331 23.353 27.8484 23.2769 27.8484 23.2C27.8484 23.1232 27.8331 23.0471 27.8034 22.9762C27.7738 22.9052 27.7303 22.8409 27.6756 22.787C27.6208 22.733 27.5559 22.6905 27.4846 22.6618C27.4133 22.6331 27.337 22.6189 27.2601 22.62H1.74012Z" fill="black"/>
</svg>
