<svg width="27" height="27" viewBox="0 0 27 27" fill="none" xmlns="http://www.w3.org/2000/svg">
<path fill-rule="evenodd" clip-rule="evenodd" d="M17.9969 20.2813C16.0848 21.693 22.0305 15.6282 20.3386 17.9337C20.3809 17.9303 20.3025 18.0581 20.0394 18.3785C20.0394 18.3785 24.558 22.8553 26.7761 25.1337C27.5461 25.9643 26.1568 27.6221 25.2129 26.7566C23.2042 24.8127 18.4513 19.9817 18.444 19.9738L17.9969 20.2813Z" fill="black"/>
<path d="M11.3574 22.5451C14.2648 22.5169 17.1429 21.3158 19.2125 19.2756C21.6705 16.8525 22.9362 13.2677 22.4947 9.84504C21.7383 3.98013 16.9046 0 11.2852 0C7.01551 0 2.86612 2.66412 1.04603 6.52713C-0.347265 9.48464 -0.350087 13.0554 1.04603 16.018C2.85313 19.8539 6.93478 22.504 11.2123 22.5451C11.2609 22.5451 11.3094 22.5451 11.3574 22.5451ZM11.2242 20.666C6.88228 20.6243 2.83112 17.2748 2.02551 12.9805C1.45758 9.95315 2.52965 6.67692 4.76298 4.52693C7.37005 2.01597 11.4681 1.17523 14.8757 2.59824C17.9242 3.87145 20.2061 6.82784 20.6267 10.0849C20.9868 12.8769 19.9825 15.8029 18.0089 17.8183C16.2774 19.5865 13.8493 20.6417 11.3456 20.666C11.3049 20.666 11.2648 20.666 11.2242 20.666Z" fill="black"/>
</svg>
