<?xml version="1.0" encoding="UTF-8"?>
<!DOCTYPE svg PUBLIC "-//W3C//DTD SVG 1.0//EN" "http://www.w3.org/TR/2001/REC-SVG-20010904/DTD/svg10.dtd">
<!-- Creator: CorelDRAW -->
<svg xmlns="http://www.w3.org/2000/svg" xml:space="preserve" width="136px" height="35px" version="1.0" style="shape-rendering:geometricPrecision; text-rendering:geometricPrecision; image-rendering:optimizeQuality; fill-rule:evenodd; clip-rule:evenodd"
viewBox="0 0 3.39 0.87"
 xmlns:xlink="http://www.w3.org/1999/xlink"
 xmlns:xodm="http://www.corel.com/coreldraw/odm/2003">
 <defs>
  <style type="text/css">
   <![CDATA[
    .fil8 {fill:#6B8991}
    .fil0 {fill:#EC7F4E}
    .fil10 {fill:#F1B44F}
    .fil9 {fill:#F4D76C}
    .fil7 {fill:#0A3A60;fill-rule:nonzero}
    .fil6 {fill:#0C506B;fill-rule:nonzero}
    .fil11 {fill:#0C506B;fill-rule:nonzero}
    .fil4 {fill:#642027;fill-rule:nonzero}
    .fil5 {fill:#AD3331;fill-rule:nonzero}
    .fil3 {fill:#CF443A;fill-rule:nonzero}
    .fil2 {fill:#F1B44F;fill-rule:nonzero}
    .fil1 {fill:#FAF7F6;fill-rule:nonzero}
   ]]>
  </style>
 </defs>
 <g id="Слой_x0020_1">
  <metadata id="CorelCorpID_0Corel-Layer"/>
  <g id="_1468372750864">
   <rect class="fil0" x="0.08" y="0.27" width="0.72" height="0.16"/>
   <path class="fil1" d="M0.17 0.32c0.01,0 0.02,0 0.03,0 0.01,0.01 0.01,0.01 0.02,0.01l0 0.01 -0.01 0c0,0 0,0.02 0,0.03l-0.01 0 -0.05 0c0,-0.01 0,-0.02 0.01,-0.03 0,0 0,0 0,-0.01 0,0 -0.01,0 -0.01,0l0 0c0,0 0,0 0,0l0 0c0.01,0 0.01,0 0.02,-0.01 0,0 0,0 0,0z"/>
   <path class="fil1" d="M0.57 0.32c0.01,0 0.02,0 0.03,0 0.01,0 0.01,0 0.01,0.01l0.02 0c0,0 -0.01,0 -0.01,0.01 -0.01,0.01 0,0.02 0,0.03l-0.01 0 -0.05 0c0,-0.01 0.01,-0.02 0,-0.03 0,-0.01 0,-0.01 -0.01,-0.01l0 0c0.01,0 0.01,0 0.02,0 0,-0.01 0,-0.01 0,-0.01z"/>
   <path class="fil1" d="M0.31 0.32c0.02,0 0.03,0 0.05,0.01l0 0c-0.01,0.01 -0.01,0 -0.02,0.01 0.01,0.01 0.01,0.02 0.01,0.03l-0.02 0 -0.04 0c0,-0.01 0,-0.02 0,-0.03 -0.01,0 -0.01,0 -0.01,0l0 -0.01c0,0 0.01,0 0.01,-0.01 0.01,0 0.01,0 0.02,0z"/>
   <path class="fil1" d="M0.7 0.32c0.01,0 0.02,-0.01 0.03,0 0.01,0 0.01,0 0.01,0.01 0.01,0 0.02,0 0.02,0l0 0 0 0.01c0,0 -0.01,0 -0.01,-0.01 0,0.01 0,0.03 0,0.04 0,0 -0.01,0 -0.01,0 -0.01,0 -0.03,0 -0.05,0 0,-0.01 0.01,-0.02 0.01,-0.03 -0.01,-0.01 -0.01,0 -0.02,-0.01l0 0c0.01,0 0.01,0 0.02,0 0,-0.01 0,-0.01 0,-0.01z"/>
   <path class="fil1" d="M0.43 0.32c0.01,0 0.02,0 0.03,0 0.01,0 0.01,0 0.01,0 0,0.01 0.01,0.01 0.01,0.01 0,0 0.01,0 0.01,0l0 0c-0.02,0.02 0,0.03 -0.01,0.04l0 0 -0.06 0 0 -0.03 0 -0.01 0 0 -0.01 0c0,0 0,0 0,0 0.01,0 0.01,0 0.02,0l0 -0.01z"/>
   <path class="fil2" d="M0.1 0.45c0,0 0,-0.02 0,-0.02 0,0 0.19,0 0.29,0l0.4 0 0 0.03c-0.02,0 -0.05,0 -0.07,0 -0.05,0 -0.09,0 -0.13,0 -0.11,0 -0.21,0 -0.31,0l-0.11 0c-0.02,0 -0.05,0 -0.07,-0.01z"/>
   <path class="fil3" d="M0.06 0.25c0.02,0 0.05,0 0.08,0 0.05,0 0.1,0 0.15,0l0.26 0 0.13 0c0.02,0 0.04,0 0.06,0 0.03,0 0.06,0 0.09,0 0.01,0.01 0.03,0.01 0.05,0.03 -0.01,0 -0.02,0 -0.03,0 -0.01,0 -0.03,0 -0.05,0l-0.74 0c-0.02,0 -0.04,0 -0.05,0 0,0 0,0 0,0 0,0 0,0 0,-0.01 0.01,-0.01 0.03,-0.02 0.05,-0.02z"/>
   <path class="fil4" d="M0.1 0.45c0.02,0.01 0.04,0.01 0.07,0.01l0.1 0c0.09,0 0.19,0 0.28,0 0.04,0 0.09,0 0.13,0 0.02,0 0.04,0 0.06,0l0.02 0 0.03 0c0,0.01 0,0.03 0,0.05l0 0.01 0 0.02c-0.01,0 -0.01,0 -0.02,0l-0.03 0c-0.01,0 -0.03,0 -0.04,0 0,0 0,-0.01 0,-0.01 0,0 0,0 0,-0.01 -0.01,0 -0.01,0 -0.02,0 0,0.01 0,0.02 0,0.02 0,0 -0.01,0 -0.02,0l-0.02 0c-0.02,0 -0.03,0 -0.05,0 -0.01,0 0,-0.01 -0.01,-0.02 0,0 -0.01,0 -0.01,0.01 0,0 0,0 0,0.01 -0.03,-0.04 -0.07,-0.07 -0.11,-0.07 -0.04,-0.01 -0.08,0.01 -0.11,0.03 -0.01,0.01 -0.02,0.03 -0.03,0.04 0,-0.01 0,-0.01 -0.01,-0.02 0,0.01 0,0.02 0,0.02 -0.02,0 -0.04,0 -0.06,0l-0.02 0c0,0 0,0 -0.01,0 0,0 0,-0.01 0,-0.02 -0.01,0 -0.01,0 -0.02,0l0 0.02 -0.03 0 -0.01 0 -0.04 0c0,0 -0.01,0 -0.01,0 -0.01,0 -0.01,-0.01 -0.01,-0.02l0 -0.02c0,-0.01 0,-0.03 0,-0.05z"/>
   <path class="fil5" d="M0.75 0.53c0.01,0 0.02,0 0.04,-0.01l0 0.02c-0.01,0 -0.01,0 -0.02,0l-0.03 0c-0.01,0 -0.03,0 -0.04,0 0,0 0,-0.01 0,-0.01 0.01,0 0.03,0 0.05,0z"/>
   <path class="fil5" d="M0.22 0.52c0.01,0.01 0.08,0 0.09,0 0,0.01 0,0.02 0,0.02 -0.02,0 -0.04,0 -0.06,0l-0.02 0c0,0 0,0 -0.01,0 0,0 0,-0.01 0,-0.02z"/>
   <path class="fil5" d="M0.58 0.52c0.02,0 0.08,0 0.1,0 0,0.01 0,0.02 0,0.02 0,0 -0.01,0 -0.02,0l-0.02 0c-0.02,0 -0.03,0 -0.05,0 -0.01,0 0,-0.01 -0.01,-0.02z"/>
   <path class="fil5" d="M0.1 0.52c0.04,0 0.07,0 0.1,0l0 0.02 -0.03 0 -0.01 0 -0.04 0c0,0 -0.01,0 -0.01,0 -0.01,0 -0.01,-0.01 -0.01,-0.02z"/>
   <path class="fil1" d="M0.44 0c0.05,0.03 0.1,0.06 0.14,0.08 0.02,0.02 0.04,0.03 0.06,0.04l0 0c0.02,0.01 0.08,0.06 0.1,0.06 0.04,0.01 0.06,0.04 0.1,0.05 0,0.01 0.01,0.01 0.01,0.01 0.01,0.01 0.03,0.02 0.04,0.03l0 0c0,0.01 0,0.01 -0.01,0.01 0,0 0,0 0,0 -0.02,-0.02 -0.04,-0.02 -0.05,-0.03 -0.03,0 -0.06,0 -0.09,0 -0.02,0 -0.04,0 -0.06,0l-0.13 0 -0.26 0c-0.05,0 -0.1,0 -0.15,0 -0.03,0 -0.06,0 -0.08,0 -0.02,0 -0.04,0.01 -0.05,0.02 0,0.01 0,0.01 0,0.01 0,0 0,0 0,0 -0.01,0 -0.01,0 -0.01,-0.01 0,0 0,0 0,0 0,-0.01 0.03,-0.03 0.04,-0.03l0.01 -0.01c0.02,0 0.09,-0.05 0.11,-0.06 0.02,-0.01 0.07,-0.04 0.08,-0.05 0.03,-0.01 0.05,-0.03 0.07,-0.04 0.04,-0.03 0.09,-0.06 0.13,-0.08z"/>
   <path class="fil6" d="M0.43 0.14c0.01,0 0.01,0 0.02,0 0.01,0.01 0.02,0.01 0.02,0.02 0,0 0,0 0,0 0,0 0,0 0,0 0,0.01 0,0.01 0,0.01 0,0 0,0 0,0 0,0 0,0 0,0 0,0 0,0.01 0,0.01 0,0 0,0 0,0 0,0 0,0 0,0 0,0.01 -0.01,0.02 -0.02,0.02 0,0 -0.01,0 -0.01,0 -0.01,0 -0.02,0 -0.02,-0.01 0,0 0,0 0,0 0,0 -0.01,0 -0.01,0 0,-0.01 0,-0.01 0,-0.01 0,0 0,0 0,0 0,0 0,0 0,0 0,0 0,-0.01 0,-0.01 0,0 0,0 0,0 0,0 0,0 0,0 0.01,-0.01 0.01,-0.02 0.02,-0.03z"/>
   <path class="fil2" d="M0.44 0c0.05,0.03 0.1,0.06 0.14,0.08 0.02,0.02 0.04,0.03 0.06,0.04l0 0c0.02,0.01 0.08,0.06 0.1,0.06 0.04,0.01 0.06,0.04 0.1,0.05 0,0.01 0.01,0.01 0.01,0.01 0.01,0.01 0.03,0.02 0.04,0.03l0 0c0,0.01 0,0.01 -0.01,0.01 0,0 0,0 0,0 -0.02,-0.02 -0.04,-0.02 -0.05,-0.03 -0.03,0 -0.06,0 -0.09,0 -0.02,-0.02 -0.05,-0.03 -0.07,-0.05l-0.14 -0.07c-0.03,-0.02 -0.06,-0.04 -0.09,-0.06 -0.03,0.02 -0.07,0.04 -0.1,0.06 -0.02,0.02 -0.05,0.03 -0.07,0.05 -0.05,0.02 -0.09,0.04 -0.13,0.07 -0.03,0 -0.06,0 -0.08,0 -0.02,0 -0.04,0.01 -0.05,0.02 0,0.01 0,0.01 0,0.01 0,0 0,0 0,0 -0.01,0 -0.01,0 -0.01,-0.01 0,0 0,0 0,0 0,-0.01 0.03,-0.03 0.04,-0.03l0.01 -0.01c0.02,0 0.09,-0.05 0.11,-0.06 0.02,-0.01 0.07,-0.04 0.08,-0.05 0.03,-0.01 0.05,-0.03 0.07,-0.04 0.04,-0.03 0.09,-0.06 0.13,-0.08z"/>
   <path class="fil7" d="M0.44 0c0.05,0.03 0.1,0.06 0.14,0.08 0.02,0.02 0.04,0.03 0.06,0.04l0 0c0.02,0.01 0.08,0.06 0.1,0.06 0.04,0.01 0.06,0.04 0.1,0.05 0,0.01 0.01,0.01 0.01,0.01 0.01,0.01 0.03,0.02 0.04,0.03l0 0c0,0.01 0,0.01 -0.01,0.01 0,0 0,0 0,0 -0.02,-0.02 -0.04,-0.02 -0.05,-0.03 -0.04,-0.03 -0.08,-0.05 -0.12,-0.07 -0.09,-0.06 -0.18,-0.11 -0.27,-0.16 -0.05,0.03 -0.09,0.06 -0.14,0.09 -0.08,0.04 -0.16,0.09 -0.24,0.14 -0.02,0 -0.04,0.01 -0.05,0.02 0,0.01 0,0.01 0,0.01 0,0 0,0 0,0 -0.01,0 -0.01,0 -0.01,-0.01 0,0 0,0 0,0 0,-0.01 0.03,-0.03 0.04,-0.03l0.01 -0.01c0.02,0 0.09,-0.05 0.11,-0.06 0.02,-0.01 0.07,-0.04 0.08,-0.05 0.03,-0.01 0.05,-0.03 0.07,-0.04 0.04,-0.03 0.09,-0.06 0.13,-0.08z"/>
   <path class="fil8" d="M0.05 0.43l0 0c0,0 0,0 0,0 0,0 0,0 0,0z"/>
   <g>
    <rect class="fil9" x="0.13" y="0.54" width="0.05" height="0.32"/>
    <rect class="fil10" x="0.16" y="0.54" width="0.02" height="0.32"/>
   </g>
   <g>
    <rect class="fil9" x="0.24" y="0.54" width="0.05" height="0.32"/>
    <rect class="fil10" x="0.27" y="0.54" width="0.02" height="0.32"/>
   </g>
   <g>
    <rect class="fil9" x="0.61" y="0.54" width="0.05" height="0.32"/>
    <rect class="fil10" x="0.64" y="0.54" width="0.02" height="0.32"/>
   </g>
   <g>
    <rect class="fil9" x="0.72" y="0.54" width="0.05" height="0.32"/>
    <rect class="fil10" x="0.75" y="0.54" width="0.02" height="0.32"/>
   </g>
   <path class="fil11" d="M1.22 0.46l-0.07 0 0 -0.24 -0.1 0 0 0.24 -0.08 0 0 -0.29 0.25 0 0 0.29zm0.31 0l-0.07 0 0 -0.2 -0.11 0.2 -0.07 0 0 -0.29 0.07 0 0 0.17 0.1 -0.17 0.08 0 0 0.29zm0.11 0l0 -0.24 -0.08 0 0 -0.05 0.24 0 0 0.05 -0.08 0 0 0.24 -0.08 0zm0.19 0l0 -0.29 0.2 0 0 0.05 -0.12 0 0 0.05 0.11 0 0 0.06 -0.11 0 0 0.07 0.12 0 0 0.06 -0.2 0zm0.47 -0.2c0,0.01 0,0.02 0,0.04 -0.01,0.01 -0.01,0.02 -0.02,0.03 -0.01,0 -0.01,0.01 -0.02,0.01 0,0 -0.01,0.01 -0.02,0.01 -0.01,0 -0.01,0.01 -0.02,0.01 -0.01,0 -0.02,0 -0.03,0l-0.04 0 0 0.1 -0.07 0 0 -0.29 0.11 0c0.02,0 0.03,0 0.04,0 0.02,0 0.03,0.01 0.04,0.01 0.01,0.01 0.02,0.02 0.02,0.03 0.01,0.02 0.01,0.03 0.01,0.05zm-0.07 0c0,-0.01 0,-0.02 -0.01,-0.02 0,-0.01 -0.01,-0.01 -0.01,-0.01 -0.01,-0.01 -0.02,-0.01 -0.02,-0.01 -0.01,0 -0.02,0 -0.03,0l-0.01 0 0 0.09 0.01 0c0,0 0.01,0 0.02,0 0,0 0.01,0 0.01,-0.01 0.01,0 0.01,0 0.01,0 0.01,0 0.01,0 0.01,-0.01 0.01,0 0.01,-0.01 0.01,-0.01 0.01,-0.01 0.01,-0.01 0.01,-0.02zm0.24 0.2c-0.05,0 -0.08,-0.01 -0.11,-0.04 -0.02,-0.02 -0.04,-0.06 -0.04,-0.11 0,-0.05 0.02,-0.08 0.04,-0.11 0.03,-0.03 0.06,-0.04 0.11,-0.04 0.01,0 0.02,0 0.03,0 0.01,0 0.02,0 0.02,0.01 0.01,0 0.02,0 0.03,0 0,0.01 0.01,0.01 0.01,0.01l0 0.07 0 0c-0.01,0 -0.01,0 -0.02,-0.01 0,0 -0.01,-0.01 -0.01,-0.01 -0.01,-0.01 -0.02,-0.01 -0.03,-0.01 0,0 -0.01,-0.01 -0.02,-0.01 -0.01,0 -0.02,0.01 -0.03,0.01 -0.01,0 -0.02,0.01 -0.03,0.02 0,0 -0.01,0.01 -0.01,0.03 -0.01,0.01 -0.01,0.02 -0.01,0.04 0,0.02 0,0.03 0.01,0.05 0,0.01 0.01,0.02 0.02,0.03 0,0 0.01,0.01 0.02,0.01 0.01,0 0.02,0.01 0.03,0.01 0.01,0 0.02,-0.01 0.03,-0.01 0,0 0.01,0 0.02,-0.01 0,0 0.01,-0.01 0.01,-0.01 0.01,0 0.01,-0.01 0.02,-0.01l0 0 0 0.07c0,0 -0.01,0 -0.01,0 -0.01,0.01 -0.02,0.01 -0.03,0.01 0,0.01 -0.01,0.01 -0.02,0.01 -0.01,0 -0.02,0 -0.03,0zm0.39 0l-0.08 0 -0.08 -0.12 -0.02 0 0 0.12 -0.07 0 0 -0.29 0.07 0 0 0.11c0.01,0 0.02,0 0.03,0 0,-0.01 0.01,-0.02 0.02,-0.03 0,-0.01 0,-0.01 0,-0.02 0.01,-0.01 0.01,-0.01 0.01,-0.02 0.01,-0.01 0.02,-0.03 0.03,-0.03 0.01,-0.01 0.03,-0.01 0.05,-0.01 0.01,0 0.01,0 0.02,0 0,0 0,0 0.01,0l0 0.06 -0.02 0c-0.01,0 -0.02,0 -0.02,0.01 -0.01,0 -0.01,0.01 -0.02,0.03 -0.01,0.01 -0.01,0.02 -0.02,0.02 0,0.01 0,0.01 -0.01,0.02l0.1 0.15zm0.28 0l-0.07 0 0 -0.2 -0.12 0.2 -0.06 0 0 -0.29 0.07 0 0 0.17 0.1 -0.17 0.08 0 0 0.29zm0.06 0l0 -0.29 0.19 0 0 0.05 -0.12 0 0 0.05 0.11 0 0 0.06 -0.11 0 0 0.07 0.12 0 0 0.06 -0.19 0zm-2.1 0.36c-0.04,0 -0.08,-0.01 -0.1,-0.04 -0.03,-0.02 -0.04,-0.06 -0.04,-0.11 0,-0.04 0.01,-0.08 0.04,-0.11 0.02,-0.03 0.06,-0.04 0.1,-0.04 0.01,0 0.02,0 0.03,0 0.01,0 0.02,0.01 0.03,0.01 0,0 0.01,0 0.02,0.01 0.01,0 0.01,0 0.02,0.01l0 0.06 -0.01 0c0,0 -0.01,0 -0.01,-0.01 -0.01,0 -0.01,-0.01 -0.02,-0.01 -0.01,0 -0.01,-0.01 -0.02,-0.01 -0.01,0 -0.02,0 -0.03,0 -0.01,0 -0.02,0 -0.03,0 -0.01,0 -0.01,0.01 -0.02,0.02 -0.01,0.01 -0.02,0.02 -0.02,0.03 0,0.01 -0.01,0.03 -0.01,0.04 0,0.02 0.01,0.04 0.01,0.05 0.01,0.01 0.01,0.02 0.02,0.03 0.01,0 0.02,0.01 0.02,0.01 0.01,0.01 0.02,0.01 0.03,0.01 0.01,0 0.02,0 0.03,-0.01 0.01,0 0.02,0 0.02,-0.01 0.01,0 0.01,-0.01 0.02,-0.01 0,0 0.01,-0.01 0.01,-0.01l0.01 0 0 0.07c-0.01,0 -0.01,0 -0.02,0.01 -0.01,0 -0.01,0 -0.02,0 -0.01,0.01 -0.02,0.01 -0.03,0.01 -0.01,0 -0.02,0 -0.03,0zm0.23 0l0 -0.29 0.2 0 0 0.05 -0.13 0 0 0.05 0.12 0 0 0.06 -0.12 0 0 0.07 0.13 0 0 0.06 -0.2 0zm0.59 0l-0.08 0 -0.08 -0.12 -0.02 0 0 0.12 -0.07 0 0 -0.29 0.07 0 0 0.12c0.01,-0.01 0.02,-0.01 0.03,-0.01 0,-0.01 0.01,-0.02 0.02,-0.03 0,-0.01 0,-0.01 0,-0.02 0.01,0 0.01,-0.01 0.01,-0.01 0.01,-0.02 0.02,-0.03 0.03,-0.04 0.01,-0.01 0.03,-0.01 0.05,-0.01 0.01,0 0.01,0 0.02,0 0,0 0,0 0.01,0l0 0.06 -0.02 0c-0.01,0 -0.02,0 -0.02,0.01 -0.01,0 -0.02,0.01 -0.02,0.03 -0.01,0.01 -0.01,0.02 -0.02,0.03 0,0 0,0.01 -0.01,0.01l0.1 0.15zm0.34 -0.2c0,0.01 0,0.02 -0.01,0.04 0,0.01 -0.01,0.02 -0.02,0.03 0,0 -0.01,0.01 -0.01,0.01 -0.01,0.01 -0.01,0.01 -0.02,0.01 -0.01,0.01 -0.02,0.01 -0.02,0.01 -0.01,0 -0.02,0 -0.03,0l-0.04 0 0 0.1 -0.07 0 0 -0.29 0.11 0c0.02,0 0.03,0 0.04,0 0.01,0 0.03,0.01 0.04,0.02 0.01,0 0.01,0.01 0.02,0.03 0.01,0.01 0.01,0.02 0.01,0.04zm-0.08 0c0,-0.01 0,-0.01 0,-0.02 -0.01,-0.01 -0.01,-0.01 -0.02,-0.01 0,-0.01 -0.01,-0.01 -0.02,-0.01 0,0 -0.01,0 -0.02,0l-0.01 0 0 0.09 0 0c0.01,0 0.02,0 0.02,0 0.01,0 0.01,0 0.02,0 0,0 0.01,-0.01 0.01,-0.01 0.01,0 0.01,0 0.01,0 0.01,-0.01 0.01,-0.01 0.01,-0.02 0,0 0,-0.01 0,-0.02zm0.21 0.2l0 -0.29 0.19 0 0 0.05 -0.12 0 0 0.05 0.11 0 0 0.06 -0.11 0 0 0.07 0.12 0 0 0.06 -0.19 0zm0.39 0l0 -0.24 -0.09 0 0 -0.05 0.25 0 0 0.05 -0.09 0 0 0.24 -0.07 0zm0.51 -0.1c0,0.02 -0.01,0.03 -0.01,0.04 -0.01,0.02 -0.01,0.03 -0.02,0.03 -0.01,0.01 -0.03,0.02 -0.04,0.02 -0.01,0.01 -0.03,0.01 -0.05,0.01l-0.11 0 0 -0.29 0.07 0 0 0.11 0.04 0c0.02,0 0.04,0 0.05,0 0.01,0 0.03,0.01 0.04,0.02 0.01,0 0.02,0.01 0.02,0.03 0,0.01 0.01,0.02 0.01,0.03zm-0.08 0.01c0,-0.01 0,-0.01 0,-0.02 0,0 0,-0.01 -0.01,-0.01 0,0 0,-0.01 -0.01,-0.01 -0.01,0 -0.02,0 -0.03,0l-0.03 0 0 0.07 0.03 0c0.02,0 0.03,0 0.04,-0.01 0.01,0 0.01,-0.01 0.01,-0.02zm0.17 0.09l-0.07 0 0 -0.29 0.07 0 0 0.29z"/>
   <path class="fil11" d="M0.07 0.84c0.03,0.01 0.06,0 0.08,0 0.05,0.01 0.1,0 0.15,0l0.25 0 0.13 0c0.02,0.01 0.04,0.01 0.07,0 0.02,0 0.05,0 0.08,0 0.01,0.01 0.03,0.02 0.05,0.03 -0.01,0 -0.02,0 -0.03,0 -0.01,0 -0.03,0 -0.05,0l-0.72 0c-0.02,0 -0.04,0.01 -0.05,0 0,0 0,0 0,0 0,0 0,0 0,0 0.01,-0.01 0.03,-0.02 0.04,-0.03z"/>
  </g>
 </g>
</svg>
